<svg width="67" height="24" viewBox="0 0 67 24" fill="none" xmlns="http://www.w3.org/2000/svg">
<path d="M0 0H55C61.6274 0 67 5.37258 67 12C67 18.6274 61.6274 24 55 24H12C5.37258 24 0 18.6274 0 12V0Z" fill="#E63939"/>
<path d="M12.0007 18.6667C15.6825 18.6667 18.6673 15.6819 18.6673 12C18.6673 8.31814 15.6825 5.33337 12.0007 5.33337C8.31875 5.33337 5.33398 8.31814 5.33398 12C5.33398 15.6819 8.31875 18.6667 12.0007 18.6667Z" fill="white"/>
<path d="M12 9.33337V12" stroke="#E63939" stroke-width="1.5" stroke-linecap="square"/>
<path d="M12 14.6666H12.0067" stroke="#E63939" stroke-width="1.5" stroke-linecap="square"/>
<path d="M24.6321 16H26.1697V12.9957H29.1278V11.728H26.1697V9.99503H29.4474V8.72727H24.6321V16ZM30.8271 16L31.3668 14.3416H33.9911L34.5309 16H36.1786L33.6715 8.72727H31.69L29.1793 16H30.8271ZM31.7575 13.1413L32.6523 10.3892H32.7092L33.604 13.1413H31.7575ZM38.5916 8.72727H37.054V16H38.5916V8.72727ZM39.8567 16H44.5123V14.7322H41.3944V8.72727H39.8567V16ZM45.5305 16H50.4453V14.7322H47.0682V12.9957H50.179V11.728H47.0682V9.99503H50.4311V8.72727H45.5305V16ZM54.2317 16C56.4476 16 57.79 14.6293 57.79 12.3565C57.79 10.0909 56.4476 8.72727 54.253 8.72727H51.6536V16H54.2317ZM53.1912 14.6825V10.0447H54.1713C55.535 10.0447 56.2559 10.7408 56.2559 12.3565C56.2559 13.9794 55.535 14.6825 54.1678 14.6825H53.1912Z" fill="white"/>
</svg>
