<svg width="70" height="32" viewBox="0 0 70 32" fill="none" xmlns="http://www.w3.org/2000/svg">
<rect x="0.5" y="0.5" width="69" height="31" rx="15.5" fill="white"/>
<line x1="14" y1="12.5834" x2="17.3333" y2="12.5834" stroke="#1E2228" stroke-width="1.5"/>
<line x1="26" y1="19.4166" x2="22.6667" y2="19.4166" stroke="#1E2228" stroke-width="1.5"/>
<line x1="19.333" y1="12.5834" x2="25.9997" y2="12.5834" stroke="#1E2228" stroke-width="1.5"/>
<line x1="20.667" y1="19.4166" x2="14.0003" y2="19.4166" stroke="#1E2228" stroke-width="1.5"/>
<line x1="17.417" y1="10.6666" x2="17.417" y2="14.6666" stroke="#1E2228" stroke-width="1.5"/>
<line x1="22.583" y1="21.3334" x2="22.583" y2="17.3334" stroke="#1E2228" stroke-width="1.5"/>
<path d="M32.6321 20H34.1697V16.9957H37.1278V15.728H34.1697V13.995H37.4474V12.7273H32.6321V20ZM38.4533 20H39.9661V14.5455H38.4533V20ZM39.2132 13.8423C39.6642 13.8423 40.0336 13.4979 40.0336 13.0753C40.0336 12.6562 39.6642 12.3118 39.2132 12.3118C38.7658 12.3118 38.3965 12.6562 38.3965 13.0753C38.3965 13.4979 38.7658 13.8423 39.2132 13.8423ZM42.6907 12.7273H41.1779V20H42.6907V12.7273ZM46.8038 14.5455H45.7775V13.2386H44.2647V14.5455H43.519V15.6818H44.2647V18.5227C44.2576 19.5916 44.9856 20.1207 46.0829 20.0746C46.4735 20.0604 46.7505 19.9822 46.9032 19.9325L46.6653 18.8068C46.5907 18.821 46.4309 18.8565 46.2889 18.8565C45.987 18.8565 45.7775 18.7429 45.7775 18.3239V15.6818H46.8038V14.5455ZM50.2164 20.1065C51.5659 20.1065 52.475 19.4496 52.688 18.4375L51.2889 18.3452C51.1362 18.7607 50.7456 18.9773 50.2413 18.9773C49.4849 18.9773 49.0055 18.4766 49.0055 17.6634V17.6598H52.72V17.2443C52.72 15.3906 51.5978 14.4744 50.1561 14.4744C48.551 14.4744 47.5105 15.6143 47.5105 17.2976C47.5105 19.027 48.5368 20.1065 50.2164 20.1065ZM49.0055 16.7223C49.0375 16.1009 49.5098 15.6037 50.1809 15.6037C50.8379 15.6037 51.2924 16.0724 51.296 16.7223H49.0055ZM53.7072 20H55.22V16.9141C55.22 16.2429 55.71 15.7812 56.3777 15.7812C56.5872 15.7812 56.8748 15.8168 57.0169 15.8629V14.5206C56.8819 14.4886 56.6937 14.4673 56.541 14.4673C55.9302 14.4673 55.4295 14.8224 55.2306 15.4972H55.1738V14.5455H53.7072V20Z" fill="#1E2228"/>
<rect x="0.5" y="0.5" width="69" height="31" rx="15.5" stroke="#EFEFF0"/>
</svg>
