<svg width="24" height="18" viewBox="0 0 24 18" fill="none" xmlns="http://www.w3.org/2000/svg">
<path d="M17.941 4.09097L17.23 3.38779L15.8237 4.8098L16.5347 5.51299L17.941 4.09097ZM18.9976 9.00495H17.9976H18.9976ZM16.5347 12.4969L15.8237 13.2001L17.23 14.6221L17.941 13.9189L16.5347 12.4969ZM6.05468 13.909L6.76569 14.6122L8.17206 13.1902L7.46105 12.487L6.05468 13.909ZM4.99814 8.99505H5.99814H4.99814ZM7.46105 5.50309L8.17206 4.7999L6.76569 3.37789L6.05468 4.08107L7.46105 5.50309ZM20.7716 1.28949L20.061 0.585803L18.6537 2.00682L19.3642 2.71051L20.7716 1.28949ZM19.3642 15.2895L18.6537 15.9932L20.061 17.4142L20.7716 16.7105L19.3642 15.2895ZM3.22418 16.7105L3.93469 17.4142L5.34206 15.9932L4.63155 15.2895L3.22418 16.7105ZM1 9H2H1ZM4.63155 2.71051L5.34206 2.00682L3.93469 0.585803L3.22418 1.28949L4.63155 2.71051ZM12 6L12.7071 5.29289L12 4.58579L11.2929 5.29289L12 6ZM9 9L8.29289 8.29289L7.58579 9L8.29289 9.70711L9 9ZM12 12L11.2929 12.7071L12 13.4142L12.7071 12.7071L12 12ZM15 9L15.7071 9.70711L16.4142 9L15.7071 8.29289L15 9ZM16.5347 5.51299C16.9991 5.9723 17.367 6.51719 17.6178 7.11626L19.4626 6.34386C19.1096 5.50057 18.5924 4.73511 17.941 4.09097L16.5347 5.51299ZM17.6178 7.11626C17.8686 7.71531 17.9976 8.35707 17.9976 9.00495H19.9976C19.9976 8.09146 19.8157 7.18716 19.4626 6.34386L17.6178 7.11626ZM17.9976 9.00495C17.9976 9.65283 17.8686 10.2946 17.6178 10.8936L19.4626 11.666C19.8157 10.8227 19.9976 9.91844 19.9976 9.00495H17.9976ZM17.6178 10.8936C17.367 11.4927 16.9991 12.0376 16.5347 12.4969L17.941 13.9189C18.5924 13.2748 19.1096 12.5093 19.4626 11.666L17.6178 10.8936ZM7.46105 12.487C6.99663 12.0277 6.62874 11.4828 6.37792 10.8837L4.53309 11.6561C4.88616 12.4994 5.40338 13.2649 6.05468 13.909L7.46105 12.487ZM6.37792 10.8837C6.12711 10.2847 5.99814 9.64293 5.99814 8.99505H3.99814C3.99814 9.90854 4.18001 10.8128 4.53309 11.6561L6.37792 10.8837ZM5.99814 8.99505C5.99814 8.34717 6.12711 7.7054 6.37792 7.10636L4.53309 6.33396C4.18001 7.17726 3.99814 8.08156 3.99814 8.99505H5.99814ZM6.37792 7.10636C6.62874 6.50729 6.99663 5.96239 7.46105 5.50309L6.05468 4.08107C5.40338 4.72521 4.88616 5.49067 4.53309 6.33396L6.37792 7.10636ZM19.3642 2.71051C21.0503 4.38047 21.9957 6.643 21.9957 9H23.9957C23.9957 6.10622 22.8348 3.33295 20.7716 1.28949L19.3642 2.71051ZM21.9957 9C21.9957 11.357 21.0503 13.6195 19.3642 15.2895L20.7716 16.7105C22.8348 14.6671 23.9957 11.8938 23.9957 9H21.9957ZM4.63155 15.2895C2.9454 13.6195 2 11.357 2 9H0C0 11.8938 1.16091 14.6671 3.22418 16.7105L4.63155 15.2895ZM2 9C2 6.643 2.9454 4.38047 4.63155 2.71051L3.22418 1.28949C1.16091 3.33295 0 6.10622 0 9H2ZM11.2929 5.29289L8.29289 8.29289L9.70711 9.70711L12.7071 6.70711L11.2929 5.29289ZM8.29289 9.70711L11.2929 12.7071L12.7071 11.2929L9.70711 8.29289L8.29289 9.70711ZM12.7071 12.7071L15.7071 9.70711L14.2929 8.29289L11.2929 11.2929L12.7071 12.7071ZM15.7071 8.29289L12.7071 5.29289L11.2929 6.70711L14.2929 9.70711L15.7071 8.29289Z" fill="#1E2228"/>
</svg>
