<svg width="48" height="48" viewBox="0 0 48 48" fill="none" xmlns="http://www.w3.org/2000/svg">
<path d="M47.9424 30.403C48.4875 28.4061 44.9864 25.9472 44.9864 23.9834C44.9864 22.0195 48.4544 19.4946 47.9424 17.5803C47.4303 15.6659 43.1691 15.2369 42.178 13.5206C41.187 11.8043 42.9542 7.90964 41.5336 6.4739C41.3067 6.26163 41.0278 6.11352 40.7247 6.04481C39.172 5.61574 36.5949 6.47388 35.0257 6.04481C34.8412 6.00349 34.6636 5.93685 34.4974 5.84679C32.8456 4.87312 32.4162 0.582371 30.434 0.0542811C28.4519 -0.473809 25.974 3.02488 24.0083 3.04139C23.8238 3.03815 23.6404 3.01032 23.4631 2.95879C21.8113 2.52972 20.1595 0.516408 18.5078 0.103838C18.205 0.0209942 17.8854 0.0209942 17.5827 0.103838C15.6501 0.631928 15.2372 4.88965 13.5193 5.87982C11.8015 6.86999 7.88709 5.1042 6.48307 6.50694C5.07905 7.90968 6.84624 11.7879 5.83865 13.5372C4.83106 15.2865 0.602471 15.633 0.0573803 17.6133C-0.487711 19.5936 3.03028 22.0691 3.03028 24.0164C3.03028 25.9637 -0.454675 28.5217 0.0573803 30.436C0.569435 32.3503 4.84757 32.7794 5.83865 34.4956C6.82972 36.2119 5.06211 40.1066 6.46613 41.5259C6.69571 41.7467 6.98127 41.9008 7.29203 41.9715C8.84471 42.384 11.4053 41.5424 12.991 41.9715C13.172 42.0156 13.3449 42.088 13.5032 42.186C15.155 43.1597 15.6005 47.4174 17.5827 47.9455C19.5648 48.4736 22.0423 44.9914 23.9914 44.9914C24.1778 44.9663 24.3672 44.9663 24.5536 44.9914C26.2054 45.4205 27.8571 47.4338 29.5089 47.8464C29.8161 47.9376 30.143 47.9376 30.4502 47.8464C32.3828 47.3348 32.7956 43.0771 34.5135 42.0869C36.2314 41.0967 40.13 42.8625 41.5506 41.4433C42.9711 40.024 41.1866 36.1626 42.1942 34.4133C43.2018 32.664 47.4138 32.3668 47.9424 30.403Z" fill="#24B39B"/>
<path d="M16.5 24L21.5 29L31.5 19" stroke="white" stroke-width="3" stroke-linejoin="round"/>
</svg>
