<svg width="77" height="24" viewBox="0 0 77 24" fill="none" xmlns="http://www.w3.org/2000/svg">
<path d="M0 0H65C71.6274 0 77 5.37258 77 12C77 18.6274 71.6274 24 65 24H12C5.37258 24 0 18.6274 0 12V0Z" fill="#EB612F"/>
<path d="M11.9997 18.6666C15.6816 18.6666 18.6663 15.6819 18.6663 12C18.6663 8.31808 15.6816 5.33331 11.9997 5.33331C8.31778 5.33331 5.33301 8.31808 5.33301 12C5.33301 15.6819 8.31778 18.6666 11.9997 18.6666Z" fill="white"/>
<path d="M12 9.33331V12" stroke="#EB612F" stroke-width="1.5" stroke-linecap="square"/>
<path d="M12 14.6667H12.0067" stroke="#EB612F" stroke-width="1.5" stroke-linecap="square"/>
<path d="M24.6321 16H26.1697V13.642H27.4624C29.1349 13.642 30.108 12.6442 30.108 11.1918C30.108 9.74645 29.1527 8.72727 27.5014 8.72727H24.6321V16ZM26.1697 12.4098V9.98438H27.2067C28.0945 9.98438 28.5241 10.4673 28.5241 11.1918C28.5241 11.9126 28.0945 12.4098 27.2138 12.4098H26.1697ZM31.1067 16H36.0215V14.7322H32.6444V12.9957H35.7551V11.728H32.6444V9.99503H36.0073V8.72727H31.1067V16ZM43.3129 8.72727H41.7823V13.3011H41.7184L38.5792 8.72727H37.2298V16H38.7674V11.4226H38.8207L41.9847 16H43.3129V8.72727ZM47.1614 16C49.3773 16 50.7196 14.6293 50.7196 12.3565C50.7196 10.0909 49.3773 8.72727 47.1827 8.72727H44.5833V16H47.1614ZM46.1209 14.6825V10.0447H47.101C48.4647 10.0447 49.1855 10.7408 49.1855 12.3565C49.1855 13.9794 48.4647 14.6825 47.0975 14.6825H46.1209ZM53.3963 8.72727H51.8587V16H53.3963V8.72727ZM60.7445 8.72727H59.214V13.3011H59.15L56.0108 8.72727H54.6614V16H56.199V11.4226H56.2523L59.4164 16H60.7445V8.72727ZM66.8374 11.0781H68.3999C68.201 9.63991 66.9332 8.62784 65.2891 8.62784C63.3679 8.62784 61.8871 10.0128 61.8871 12.3707C61.8871 14.6719 63.272 16.0994 65.321 16.0994C67.157 16.0994 68.4673 14.9382 68.4673 13.0241V12.108H65.424V13.2656H66.9865C66.9652 14.1676 66.3509 14.7393 65.3281 14.7393C64.174 14.7393 63.446 13.8764 63.446 12.3565C63.446 10.8438 64.2024 9.98793 65.3139 9.98793C66.1058 9.98793 66.642 10.3963 66.8374 11.0781Z" fill="white"/>
</svg>
