<svg width="22" height="22" viewBox="0 0 22 22" fill="none" xmlns="http://www.w3.org/2000/svg">
<path d="M12.9375 13L13.6044 12.2549L12.9375 11.6579L12.2706 12.2549L12.9375 13ZM1 5V4H0V5H1ZM17 21V22H18V21H17ZM1 21H0V22H1V21ZM17 2L17.7071 1.29289L17 0.585786L16.2929 1.29289L17 2ZM14 5L13.2929 4.29289L12.5858 5L13.2929 5.70711L14 5ZM17 8L16.2929 8.70711L17 9.41421L17.7071 8.70711L17 8ZM20 5L20.7071 5.70711L21.4142 5L20.7071 4.29289L20 5ZM7.5 10.5C7.5 11.0523 7.05228 11.5 6.5 11.5V13.5C8.15685 13.5 9.5 12.1569 9.5 10.5H7.5ZM6.5 11.5C5.94772 11.5 5.5 11.0523 5.5 10.5H3.5C3.5 12.1569 4.84315 13.5 6.5 13.5V11.5ZM5.5 10.5C5.5 9.94772 5.94772 9.5 6.5 9.5V7.5C4.84315 7.5 3.5 8.84315 3.5 10.5H5.5ZM6.5 9.5C7.05228 9.5 7.5 9.94772 7.5 10.5H9.5C9.5 8.84315 8.15685 7.5 6.5 7.5V9.5ZM17.6669 15.8913L13.6044 12.2549L12.2706 13.7451L16.3331 17.3815L17.6669 15.8913ZM12.2706 12.2549L3.33305 20.2549L4.66695 21.7451L13.6044 13.7451L12.2706 12.2549ZM1 6H10.3529V4H1V6ZM17 20H1V22H17V20ZM2 21V5H0V21H2ZM16 11.1176V21H18V11.1176H16ZM16.2929 1.29289L13.2929 4.29289L14.7071 5.70711L17.7071 2.70711L16.2929 1.29289ZM13.2929 5.70711L16.2929 8.70711L17.7071 7.29289L14.7071 4.29289L13.2929 5.70711ZM17.7071 8.70711L20.7071 5.70711L19.2929 4.29289L16.2929 7.29289L17.7071 8.70711ZM20.7071 4.29289L17.7071 1.29289L16.2929 2.70711L19.2929 5.70711L20.7071 4.29289Z" fill="#1E2228"/>
</svg>
