<svg width="86" height="24" viewBox="0 0 86 24" fill="none" xmlns="http://www.w3.org/2000/svg">
<path d="M0 0H74C80.6274 0 86 5.37258 86 12C86 18.6274 80.6274 24 74 24H12C5.37258 24 0 18.6274 0 12V0Z" fill="#939599"/>
<path d="M12.6667 16C14.5076 16 16 14.5076 16 12.6666C16 10.8257 14.5076 9.33331 12.6667 9.33331" stroke="white" stroke-width="1.5"/>
<path d="M9.99967 12L7.33301 9.33335L9.99967 6.66669" stroke="white" stroke-width="1.5"/>
<path d="M12.6663 9.33331H7.33301" stroke="white" stroke-width="1.5"/>
<path d="M12.667 16H8.66699" stroke="white" stroke-width="1.5"/>
<path d="M24.6321 16H26.1697V13.4219H27.2919L28.6697 16H30.3672L28.8224 13.1733C29.6499 12.8182 30.108 12.0973 30.108 11.103C30.108 9.65767 29.1527 8.72727 27.5014 8.72727H24.6321V16ZM26.1697 12.1861V9.98438H27.2067C28.0945 9.98438 28.5241 10.3786 28.5241 11.103C28.5241 11.8239 28.0945 12.1861 27.2138 12.1861H26.1697ZM31.1946 16H36.1094V14.7322H32.7322V12.9957H35.843V11.728H32.7322V9.99503H36.0952V8.72727H31.1946V16ZM37.3176 16H38.8553V12.9957H41.8134V11.728H38.8553V9.99503H42.133V8.72727H37.3176V16ZM47.6594 8.72727V13.3189C47.6594 14.1499 47.0771 14.75 46.1822 14.75C45.2908 14.75 44.7049 14.1499 44.7049 13.3189V8.72727H43.1673V13.4503C43.1673 15.0412 44.3675 16.103 46.1822 16.103C47.9897 16.103 49.1971 15.0412 49.1971 13.4503V8.72727H47.6594ZM56.5453 8.72727H55.0147V13.3011H54.9508L51.8116 8.72727H50.4622V16H51.9998V11.4226H52.0531L55.2172 16H56.5453V8.72727ZM60.3938 16C62.6097 16 63.9521 14.6293 63.9521 12.3565C63.9521 10.0909 62.6097 8.72727 60.4151 8.72727H57.8157V16H60.3938ZM59.3533 14.6825V10.0447H60.3335C61.6971 10.0447 62.418 10.7408 62.418 12.3565C62.418 13.9794 61.6971 14.6825 60.3299 14.6825H59.3533ZM65.0911 16H70.0059V14.7322H66.6287V12.9957H69.7395V11.728H66.6287V9.99503H69.9917V8.72727H65.0911V16ZM73.7923 16C76.0082 16 77.3505 14.6293 77.3505 12.3565C77.3505 10.0909 76.0082 8.72727 73.8136 8.72727H71.2141V16H73.7923ZM72.7518 14.6825V10.0447H73.7319C75.0955 10.0447 75.8164 10.7408 75.8164 12.3565C75.8164 13.9794 75.0955 14.6825 73.7283 14.6825H72.7518Z" fill="white"/>
</svg>
